<svg height="512" viewBox="0 0 192 192" width="512" xmlns="http://www.w3.org/2000/svg"><g id="_07-helmet" data-name="07-helmet"><path d="m162.483 30.174c-20.674-19.458-47.127-30.174-74.483-30.174-55.925 0-88 40.822-88 112a8 8 0 0 0 8 8h44.687l36.213 36.218c4.447 13.555 20.531 35.782 55.1 35.782v-16c-26.074 0-35.9-15.6-39.015-22.647l43.015-57.353h36a8 8 0 0 0 8-8c0-18.532-11.31-40.69-29.517-57.826zm-67.349 109.647-28.84-28.84 9.987-14.981h51.719zm-23.134-59.821a8 8 0 0 0 -6.656 3.563l-13.625 20.437h-35.561c1.442-36.116 13.658-88 71.842-88 23.265 0 45.822 9.172 63.517 25.826 12.175 11.458 20.823 25.682 23.56 38.174z"/><path d="m32 80h16v16h-16z"/><path d="m56 32h64v16h-64z"/><path d="m40 56h104v16h-104z"/></g></svg>