<?xml version="1.0" encoding="iso-8859-1"?>
<!-- Generator: Adobe Illustrator 19.0.0, SVG Export Plug-In . SVG Version: 6.00 Build 0)  -->
<svg version="1.1" id="Capa_1" xmlns="http://www.w3.org/2000/svg" xmlns:xlink="http://www.w3.org/1999/xlink" x="0px" y="0px"
	 viewBox="0 0 512.11 512.11" style="enable-background:new 0 0 512.11 512.11;" xml:space="preserve">
<g transform="translate(-1)">
	<g>
		<g>
			<path d="M321.584,368.115v-0.034l-35.703-4.958l-16.06-31.07c-2.448-4.754-7.35-7.739-12.698-7.731
				c-5.36-0.016-10.279,2.969-12.74,7.731l-16.051,31.07l-35.695,4.958c-5.474,0.694-10.05,4.496-11.735,9.751
				c-1.685,5.254-0.173,11.009,3.876,14.757l25.481,23.714l-6.042,33.57c-0.934,5.331,1.224,10.733,5.576,13.951
				c4.352,3.219,10.148,3.701,14.972,1.247l32.358-16.222l32.307,16.213c4.866,2.463,10.708,1.95,15.07-1.323
				c4.329-3.197,6.458-8.582,5.487-13.875l-6.033-33.596l25.429-23.68c4.025-3.743,5.528-9.473,3.859-14.709
				S327.032,368.839,321.584,368.115z M291.145,404.842c-3.54,3.279-5.167,8.135-4.318,12.885l5.325,29.636l-28.604-14.37
				c-4.066-2.036-8.854-2.036-12.919,0l-28.612,14.37l5.316-29.619c0.868-4.744-0.74-9.604-4.267-12.894l-22.187-20.685
				l31.206-4.326c4.607-0.635,8.619-3.467,10.761-7.595l14.276-27.665l14.293,27.648c2.133,4.138,6.148,6.978,10.761,7.612
				l31.215,4.335L291.145,404.842z"/>
			<path d="M376.376,79.04c0.29-1.261,0.29-2.571,0-3.831c-3.277-14.72-45.961-41.02-119.253-41.02
				c-73.02,0-115.806,25.95-119.253,40.482c-0.29,1.261-0.29,2.571,0,3.831c3.277,14.72,45.961,41.02,119.253,41.02
				C330.143,119.522,372.929,93.572,376.376,79.04z M257.123,51.255c57.609,0,91.042,17.476,100.429,25.745
				c-9.489,8.32-42.479,25.455-100.429,25.455c-57.609,0-91.042-17.476-100.429-25.745C166.183,68.39,199.173,51.255,257.123,51.255
				z"/>
			<path d="M484.958,204.217c17.406-3.073,29.572-18.944,28.018-36.55s-16.312-31.102-33.987-31.078
				c-15.596,0.054-29.172,10.672-32.981,25.796c-45.653,1.109-72.03,12.134-86.485,22.187v-8.73
				c30.608-24.014,49.289-60.129,51.2-98.987c0-43.068-67.465-76.8-153.6-76.8s-153.6,33.732-153.6,76.8
				c1.911,38.857,20.592,74.973,51.2,98.987v8.772c-14.456-10.052-40.832-21.077-86.485-22.187
				c-4.189-16.67-20.12-27.625-37.185-25.57c-17.065,2.055-29.94,16.479-30.052,33.667c-0.112,17.188,12.575,31.778,29.612,34.054
				c17.037,2.277,33.109-8.47,37.514-25.084c42.035,1.058,64.922,10.923,76.587,18.97c-48.137,30.797-99.772,70.724-115.678,204.8
				c-2.422,18.697,4.178,37.432,17.783,50.483c29.397,26.556,89.711,58.308,210.304,58.308s180.907-31.761,210.313-58.402
				c13.597-13.042,20.199-31.763,17.792-50.449c-15.838-134.025-67.49-173.978-115.627-204.8
				c11.674-8.047,34.543-17.92,76.518-18.935C450.687,196.543,467.553,207.289,484.958,204.217z M478.99,153.655
				c9.426,0,17.067,7.641,17.067,17.067s-7.641,17.067-17.067,17.067s-17.067-7.641-17.067-17.067S469.564,153.655,478.99,153.655z
				 M35.256,187.788c-9.426,0-17.067-7.641-17.067-17.067s7.641-17.067,17.067-17.067s17.067,7.641,17.067,17.067
				S44.682,187.788,35.256,187.788z M120.59,76.855c0-28.843,54.869-59.733,136.533-59.733s136.533,30.891,136.533,59.733
				c0,28.843-54.869,59.733-136.533,59.733S120.59,105.698,120.59,76.855z M131.751,121.638
				c27.571,19.482,72.96,32.017,125.372,32.017c52.113,0,97.28-12.399,124.919-31.693c-13.257,28.09-37.924,49.146-67.746,57.83
				c-2.956,0.885-5.204,3.296-5.879,6.307c-0.675,3.011,0.327,6.151,2.622,8.214c2.295,2.063,5.524,2.726,8.446,1.735
				c7.919-2.503,15.605-5.689,22.972-9.523v35.84c-26.813,11.951-55.995,17.636-85.333,16.623
				c-29.34,1.002-58.524-4.694-85.333-16.657v-35.84c7.388,3.849,15.097,7.047,23.04,9.557c2.922,0.991,6.151,0.328,8.446-1.735
				c2.295-2.063,3.297-5.203,2.622-8.214c-0.675-3.011-2.924-5.422-5.879-6.307C169.933,171.174,145.043,149.97,131.751,121.638z
				 M468.28,405.201c1.813,13.224-2.756,26.523-12.314,35.84c-22.204,20.13-77.611,53.948-198.844,53.948
				s-176.64-33.818-198.827-53.973c-9.556-9.318-14.122-22.618-12.305-35.84c15.07-127.061,61.747-162.935,108.732-192.913v14.344
				c-7.186,7.714-13.771,15.967-19.695,24.687c-2.63,3.914-1.589,9.219,2.325,11.849c3.914,2.63,9.219,1.589,11.849-2.325
				c5.268-7.751,11.107-15.099,17.468-21.982c25.851,11.236,53.733,17.045,81.92,17.067v34.287c0,4.713,3.82,8.533,8.533,8.533
				s8.533-3.82,8.533-8.533v-34.33c28.187-0.023,56.069-5.832,81.92-17.067c6.36,6.882,12.196,14.229,17.459,21.982
				c2.63,3.914,7.935,4.955,11.849,2.325c3.914-2.63,4.955-7.935,2.325-11.849c-5.923-8.705-12.505-16.944-19.686-24.644v-14.421
				C406.524,242.24,453.253,278.122,468.28,405.201z"/>
		</g>
	</g>
</g>
<g>
</g>
<g>
</g>
<g>
</g>
<g>
</g>
<g>
</g>
<g>
</g>
<g>
</g>
<g>
</g>
<g>
</g>
<g>
</g>
<g>
</g>
<g>
</g>
<g>
</g>
<g>
</g>
<g>
</g>
</svg>
