<?xml version="1.0"?>
<svg xmlns="http://www.w3.org/2000/svg" viewBox="0 0 64 64" width="512" height="512"><g id="outline"><path d="M50.37,2A11.609,11.609,0,0,0,40.118,8.148c-.014.028-.028.056-.039.084-.763,1.426-1.589,2.818-2.444,4.174a3.093,3.093,0,0,0-4.624,2.6,3.114,3.114,0,0,0-3,3,3.114,3.114,0,0,0-3,3,3.114,3.114,0,0,0-3,3,3.114,3.114,0,0,0-3,3,3.114,3.114,0,0,0-3,3,3.114,3.114,0,0,0-3,3,3.088,3.088,0,0,0-2.6,4.623c-1.359.856-2.751,1.682-4.173,2.443-.03.012-.059.026-.088.041A11.627,11.627,0,1,0,23.882,55.852c.014-.028.028-.056.039-.084.763-1.426,1.589-2.818,2.444-4.174a3.093,3.093,0,0,0,4.624-2.605,3.114,3.114,0,0,0,3-3,3.114,3.114,0,0,0,3-3,3.114,3.114,0,0,0,3-3,3.114,3.114,0,0,0,3-3,3.114,3.114,0,0,0,3-3,3.114,3.114,0,0,0,3-3,3.088,3.088,0,0,0,2.6-4.623c1.359-.856,2.751-1.682,4.173-2.443.03-.012.059-.026.088-.041A11.627,11.627,0,0,0,50.37,2ZM22.118,54.9a.834.834,0,0,0-.038.08A9.627,9.627,0,1,1,9.018,41.922c.028-.012.056-.026.083-.039,1.584-.845,3.136-1.766,4.643-2.725l1.39,1.39c-1.551.935-3.155,1.84-4.822,2.678A7.8,7.8,0,1,0,20.773,53.689c.84-1.67,1.746-3.274,2.679-4.823l1.39,1.39C23.885,51.76,22.965,53.312,22.118,54.9Zm-2.438-9.8L15,51.333A1.667,1.667,0,1,1,12.667,49l6.239-4.68Zm-8.212,2.3A3.667,3.667,0,1,0,16.6,52.533l4.508-6.011.885.885c-1.053,1.719-2.068,3.516-3.008,5.388a5.8,5.8,0,1,1-7.776-7.781c1.865-.938,3.663-1.953,5.384-3.007l.885.885ZM27.879,50a1.112,1.112,0,0,1-.793-.328L14.328,36.914A1.121,1.121,0,0,1,15.121,35a1.112,1.112,0,0,1,.793.328L28.672,48.086A1.121,1.121,0,0,1,27.879,50Zm3-3a1.112,1.112,0,0,1-.793-.328L17.328,33.914A1.121,1.121,0,0,1,18.121,32a1.112,1.112,0,0,1,.793.328L31.672,45.086A1.121,1.121,0,0,1,30.879,47Zm3-3a1.112,1.112,0,0,1-.793-.328L20.328,30.914A1.121,1.121,0,0,1,21.121,29a1.112,1.112,0,0,1,.793.328L34.672,42.086A1.121,1.121,0,0,1,33.879,44Zm3-3a1.112,1.112,0,0,1-.793-.328L23.328,27.914A1.121,1.121,0,0,1,24.121,26a1.112,1.112,0,0,1,.793.328L37.672,39.086A1.121,1.121,0,0,1,36.879,41Zm3-3a1.112,1.112,0,0,1-.793-.328L26.328,24.914A1.121,1.121,0,0,1,27.121,23a1.112,1.112,0,0,1,.793.328L40.672,36.086A1.121,1.121,0,0,1,39.879,38Zm3-3a1.112,1.112,0,0,1-.793-.328L29.328,21.914A1.121,1.121,0,0,1,30.121,20a1.112,1.112,0,0,1,.793.328L43.672,33.086A1.121,1.121,0,0,1,42.879,35Zm3-3a1.112,1.112,0,0,1-.793-.328L32.328,18.914A1.121,1.121,0,0,1,33.121,17a1.112,1.112,0,0,1,.793.328L46.672,30.086A1.121,1.121,0,0,1,45.879,32Zm3-3a1.112,1.112,0,0,1-.793-.328L35.328,15.914A1.121,1.121,0,0,1,36.121,14a1.112,1.112,0,0,1,.793.328L49.672,27.086A1.121,1.121,0,0,1,48.879,29Zm-2.357-7.892,6.01-4.507A3.667,3.667,0,1,0,47.4,11.467l-4.508,6.011-.885-.885c1.053-1.719,2.068-3.516,3.008-5.386a5.8,5.8,0,1,1,7.776,7.779c-1.865.938-3.663,1.953-5.384,3.007Zm-2.2-2.2L49,12.667A1.667,1.667,0,1,1,51.333,15l-6.239,4.68Zm10.662,3.172c-.028.012-.056.026-.083.039-1.584.845-3.136,1.766-4.643,2.725l-1.39-1.39c1.551-.935,3.155-1.84,4.822-2.678A7.8,7.8,0,1,0,43.227,10.311c-.84,1.67-1.746,3.274-2.679,4.823l-1.39-1.39c.957-1.5,1.877-3.056,2.724-4.643a.834.834,0,0,0,.038-.08A9.627,9.627,0,1,1,54.982,22.078Z"/></g></svg>
