<svg height="512pt" viewBox="0 0 512 512.00104" width="512pt" xmlns="http://www.w3.org/2000/svg"><path d="m8.535156 512h341.332032c4.710937 0 8.535156-3.820312 8.535156-8.53125v-179.199219c-.003906-10.609375-1.664063-21.15625-4.917969-31.253906 23.765625-10.421875 42.757813-29.386719 53.207031-53.144531 9.203125-25.113282 11.886719-52.15625 7.800782-78.589844 66.601562-27.246094 102.175781-81.054688 96.996093-116.734375-2.898437-21.410156-21.683593-37.046875-43.265625-36.011719-54.53125 0-110.929687 35.109375-110.929687 93.867188.289062 14.957031 1.535156 29.882812 3.730469 44.683594l.035156.230468c.015625.210938.03125.417969.066406.625 3.589844 25.960938 6.992188 50.476563-2.027344 72.960938-6.957031 13.535156-18.960937 23.789062-33.414062 28.542968-18.882813-17.707031-43.796875-27.570312-69.683594-27.578124h-153.597656c-56.53125.0625-102.339844 45.871093-102.402344 102.402343v179.199219c0 4.710938 3.820312 8.53125 8.535156 8.53125zm93.867188-128h76.796875c4.714843.003906 8.53125 3.824219 8.535156 8.535156v51.199219c-.003906 4.710937-3.820313 8.53125-8.535156 8.535156h-102.398438v-68.269531zm179.199218 8.535156v51.199219h-76.800781v-51.199219zm-83.457031-17.066406c-4.8125-5.410156-11.703125-8.515625-18.945312-8.535156h-34.132813v-128h68.265625v136.535156zm-121.34375 93.867188h102.398438c7.242187-.019532 14.132812-3.125 18.945312-8.535157h83.457031v34.132813h-204.800781zm264.53125 25.597656h-42.664062v-145.066406c0-4.710938-3.820313-8.53125-8.535157-8.53125-4.710937 0-8.53125 3.820312-8.53125 8.53125v25.601562h-17.066406v-136.101562c43.574219 4.433593 76.742188 41.101562 76.796875 84.902343zm33.601563-267.675782c10.707031-26.699218 6.832031-54.632812 3.175781-81-.003906-.65625-.082031-1.308593-.234375-1.949218-2.054688-13.878906-3.230469-27.878906-3.515625-41.90625 0-48.078125 47.722656-76.800782 93.863281-76.800782 13.089844-1.074218 24.710938 8.339844 26.375 21.367188 4.402344 30.382812-31.648437 78.125-92.328125 100.777344-3.699219 1.378906-5.96875 5.117187-5.484375 9.035156 3.492188 28.390625 3.816406 52.316406-5.941406 76.765625-8.636719 19.585937-24.324219 35.203125-43.945312 43.753906-2.660157-5.097656-5.742188-9.960937-9.21875-14.539062 16.457031-6.707031 29.761718-19.390625 37.253906-35.503907zm-127.464844 11.675782v136.535156h-17.066406v-136.535156zm-119.46875 0v128h-17.066406v-128zm-110.933594 85.335937c.058594-43.800781 33.226563-80.46875 76.800782-84.902343v127.566406h-17.066407v-17.066406c0-4.710938-3.820312-8.53125-8.535156-8.53125-4.710937 0-8.53125 3.820312-8.53125 8.53125v145.066406h-42.667969zm0 0"/><path d="m206.105469 3.707031c-4.316407-2.398437-9.167969-3.6718748-14.105469-3.707031h-12.800781c-54.164063-.242188-99.234375 41.566406-103.0625 95.597656-3.824219 54.03125 34.910156 101.769532 88.570312 109.160156 53.660157 7.390626 103.855469-28.097656 114.78125-81.152343 10.925781-53.054688-21.167969-105.488281-73.382812-119.898438zm-26.90625 184.027344c-33.046875.144531-63.207031-18.804687-77.417969-48.640625-14.207031-29.835938-9.914062-65.195312 11.027344-90.761719 20.9375-25.566406 54.757812-36.742187 86.808594-28.691406 4.441406 3.277344 6.269531 9.035156 4.539062 14.273437-1.734375 5.238282-6.636719 8.769532-12.15625 8.753907h-12.800781c-4.710938 0-8.53125 3.820312-8.53125 8.53125 0 4.714843 3.820312 8.535156 8.53125 8.535156h12.800781c16.488281-.019531 29.847656-13.378906 29.867188-29.867187 0-.457032-.113282-.882813-.136719-1.335938 33.507812 19.246094 49.886719 58.617188 39.914062 95.945312-9.972656 37.332032-43.804687 63.289063-82.445312 63.257813zm0 0"/><path d="m396.566406 128.074219c2.347656 1.394531 5.222656 1.578125 7.726563.492187 28.691406-11.359375 52.75-32.015625 68.324219-58.65625 3.308593-5.800781 5.109374-12.339844 5.234374-19.015625-.175781-4.210937-3.398437-7.660156-7.585937-8.128906-.675781-.066406-1.359375-.101563-2.042969-.097656-37.746094 0-76.796875 22.339843-76.796875 59.734375 0 5.773437.324219 12.03125 1 19.132812.25 2.71875 1.792969 5.152344 4.140625 6.539063zm61.710938-67.742188c-.269532.609375-.578125 1.242188-.910156 1.90625-11.414063 19.617188-28.390626 35.40625-48.78125 45.367188-.0625-1.792969-.09375-3.523438-.09375-5.203125 0-23.691406 23.890624-38.925782 49.785156-42.070313zm0 0"/></svg>